<?xml version="1.0" encoding="utf-8"?>
<!-- Generator: Adobe Illustrator 20.1.0, SVG Export Plug-In . SVG Version: 6.00 Build 0)  -->
<svg version="1.1" id="Capa_1" xmlns="http://www.w3.org/2000/svg" xmlns:xlink="http://www.w3.org/1999/xlink" x="0px" y="0px"
	 viewBox="0 0 300 300" style="enable-background:new 0 0 300 300;" xml:space="preserve">
<style type="text/css">
	.st0{fill:#E5E9EA;}
</style>
<g>
	<path class="st0" d="M296.2,146.5c5.4-6,4.9-15.1-1.2-20.5L161,8.7c-6.1-5.3-15.8-5.2-21.8,0.3L4.7,132.3c-6,5.5-6.2,14.6-0.6,20.4
		l3.4,3.5c5.6,5.8,14.6,6.5,20.2,1.5l10.1-9v131.8c0,8.1,6.6,14.6,14.6,14.6h52.4c8.1,0,14.6-6.5,14.6-14.6v-92.2h66.9v92.2
		c-0.1,8.1,5.7,14.6,13.7,14.6h55.6c8.1,0,14.6-6.5,14.6-14.6v-130c0,0,2.8,2.4,6.2,5.4c3.4,3,10.6,0.6,16-5.4L296.2,146.5z"/>
</g>
</svg>
