<?xml version="1.0" encoding="utf-8"?>
<!-- Generator: Adobe Illustrator 20.1.0, SVG Export Plug-In . SVG Version: 6.00 Build 0)  -->
<svg version="1.1" id="Capa_1" xmlns="http://www.w3.org/2000/svg" xmlns:xlink="http://www.w3.org/1999/xlink" x="0px" y="0px"
	 viewBox="0 0 300 300" style="enable-background:new 0 0 300 300;" xml:space="preserve">
<style type="text/css">
	.st0{fill:#E5E9EA;}
</style>
<g>
	<path class="st0" d="M270.4,5H79.7C63.3,5,50,18.3,50,34.7V65h170.4c21.9,0,39.6,17.8,39.6,39.6V170h10.4
		c16.4,0,29.6-13.3,29.6-29.6V34.7C300,18.3,286.7,5,270.4,5z"/>
	<path class="st0" d="M220.4,75H29.6C13.3,75,0,88.3,0,104.6v105.7C0,226.7,13.3,240,29.6,240H60v50c0,2.1,1.3,3.9,3.2,4.7
		c0.6,0.2,1.2,0.3,1.8,0.3c1.4,0,2.7-0.6,3.7-1.6l48.5-53.4h103.1c16.3,0,29.6-13.3,29.6-29.6V104.6C250,88.3,236.7,75,220.4,75z
		 M60,125.1h70c2.8,0,5,2.2,5,5c0,2.8-2.2,5-5,5H60c-2.8,0-5-2.2-5-5S57.2,125.1,60,125.1z M195,195.1H60c-2.8,0-5-2.2-5-5
		c0-2.8,2.2-5,5-5h135c2.8,0,5,2.2,5,5C200,192.8,197.8,195.1,195,195.1z M195,165.1H60c-2.8,0-5-2.2-5-5c0-2.8,2.2-5,5-5h135
		c2.8,0,5,2.2,5,5C200,162.8,197.8,165.1,195,165.1z"/>
</g>
</svg>
