<?xml version="1.0" encoding="utf-8"?>
<!-- Generator: Adobe Illustrator 20.1.0, SVG Export Plug-In . SVG Version: 6.00 Build 0)  -->
<svg version="1.1" id="Layer_1" xmlns="http://www.w3.org/2000/svg" xmlns:xlink="http://www.w3.org/1999/xlink" x="0px" y="0px"
	 viewBox="0 0 300 300" style="enable-background:new 0 0 300 300;" xml:space="preserve">
<style type="text/css">
	.st0{fill:#282F39;}
	.st1{fill:#FFFFFF;}
</style>
<circle class="st0" cx="150" cy="150" r="150"/>
<g>
	<g>
		<path class="st1" d="M230,96.2c-5.6,3.1-12.5,5-18.8,5.6c6.9-4.4,11.9-11.2,14.4-19.4c-6.2,3.8-13.1,6.9-21.2,8.8
			C198.1,84.4,190,80,180.6,80c-18.1,0-33.1,15.6-33.1,35.6c0,2.5,0,5.6,0.6,8.1c-27.5-1.2-51.9-15.6-68.1-36.9
			c-3.1,5-4.4,11.2-4.4,18.1c0,12.5,5.6,23.1,14.4,29.4c-5.6,0-10.6-1.9-15-4.4v0.6c0,16.9,11.2,31.2,26.2,35
			c-2.5,0.6-5.6,1.2-8.8,1.2c-1.9,0-4.4,0-6.2-0.6c4.4,14.4,16.2,24.4,30.6,24.4c-11.2,9.4-25.6,15-40.6,15c-2.5,0-5,0-8.1-0.6
			c14.4,10,31.9,16.2,50.6,16.2c60.6,0,93.8-53.8,93.8-100.6c0-1.2,0-3.1,0-4.4C220,110,225.6,103.8,230,96.2z"/>
	</g>
</g>
</svg>
