<?xml version="1.0" encoding="utf-8"?>
<!-- Generator: Adobe Illustrator 20.1.0, SVG Export Plug-In . SVG Version: 6.00 Build 0)  -->
<svg version="1.1" id="Layer_1" xmlns="http://www.w3.org/2000/svg" xmlns:xlink="http://www.w3.org/1999/xlink" x="0px" y="0px"
	 viewBox="0 0 300 300" style="enable-background:new 0 0 300 300;" xml:space="preserve">
<style type="text/css">
	.st0{fill:#282F39;}
	.st1{fill:#FFFFFF;}
</style>
<circle class="st0" cx="150" cy="150" r="150"/>
<path class="st1" d="M220,115.6c0-0.6,0-1.2-0.6-1.9v-0.6c-1.9-5.6-6.9-9.4-13.1-9.4h1.2c0,0-24.4-3.8-57.5-3.8
	c-32.5,0-57.5,3.8-57.5,3.8h1.2c-6.2,0-11.2,3.8-13.1,9.4v0.6c0,0.6,0,1.2-0.6,1.9c-0.6,6.2-2.5,19.4-2.5,34.4s1.9,28.1,2.5,34.4
	c0,0.6,0,1.2,0.6,1.9v0.6c1.9,5.6,6.9,9.4,13.1,9.4h-1.2c0,0,24.4,3.8,57.5,3.8c32.5,0,57.5-3.8,57.5-3.8h-1.2
	c6.2,0,11.2-3.8,13.1-9.4v-0.6c0-0.6,0-1.2,0.6-1.9c0.6-6.2,2.5-19.4,2.5-34.4S221.2,121.9,220,115.6z M171.2,153.1l-29.4,21.2
	c-0.6,0.6-1.2,0.6-1.9,0.6s-1.2,0-1.9-0.6c-1.2-0.6-1.9-1.9-1.9-3.1v-42.5c0-1.2,0.6-2.5,1.9-3.1s2.5-0.6,3.8,0l29.4,21.2
	c0.6,0.6,1.2,1.9,1.2,3.1C173.1,151.2,172.5,152.5,171.2,153.1z"/>
</svg>
